<svg width="1200" height="800" viewBox="0 0 1200 800" fill="none" xmlns="http://www.w3.org/2000/svg">
  <rect width="1200" height="800" rx="40" fill="#EAF6F4"/>
  <rect x="82" y="92" width="1036" height="616" rx="32" fill="#F9FFFE"/>
  <rect x="168" y="447" width="863" height="146" rx="26" fill="#D5EEE8"/>
  <rect x="204" y="206" width="284" height="176" rx="24" fill="#C9E4FF"/>
  <rect x="538" y="184" width="426" height="212" rx="24" fill="#F1E3FF"/>
  <rect x="250" y="494" width="154" height="44" rx="22" fill="#0F766E"/>
  <rect x="746" y="494" width="190" height="44" rx="22" fill="#0F766E"/>
  <circle cx="312" cy="286" r="48" fill="#0EA5A4"/>
  <path d="M301 286H323M312 275V297" stroke="white" stroke-width="12" stroke-linecap="round"/>
  <circle cx="680" cy="278" r="54" fill="#8B5CF6" opacity="0.18"/>
  <circle cx="780" cy="278" r="54" fill="#8B5CF6" opacity="0.28"/>
  <circle cx="880" cy="278" r="54" fill="#8B5CF6" opacity="0.38"/>
  <rect x="186" y="126" width="206" height="28" rx="14" fill="#0F766E" opacity="0.2"/>
  <rect x="538" y="126" width="168" height="28" rx="14" fill="#8B5CF6" opacity="0.2"/>
  <rect x="758" y="126" width="132" height="28" rx="14" fill="#0F766E" opacity="0.12"/>
</svg>
