<svg width="1200" height="800" viewBox="0 0 1200 800" fill="none" xmlns="http://www.w3.org/2000/svg">
  <rect width="1200" height="800" rx="40" fill="#F6F9FF"/>
  <rect x="108" y="96" width="984" height="608" rx="36" fill="#FFFFFF"/>
  <rect x="182" y="170" width="264" height="444" rx="32" fill="#DDEBFF"/>
  <rect x="514" y="170" width="504" height="202" rx="32" fill="#E6F7F1"/>
  <rect x="514" y="412" width="504" height="202" rx="32" fill="#F0E8FF"/>
  <rect x="238" y="240" width="148" height="264" rx="18" fill="#B4D1FF"/>
  <path d="M262 274H362M262 314H362M262 354H330" stroke="#0F4C81" stroke-width="18" stroke-linecap="round"/>
  <rect x="584" y="230" width="124" height="86" rx="20" fill="#0F766E"/>
  <rect x="744" y="212" width="204" height="122" rx="24" fill="#DDF5F0"/>
  <rect x="584" y="466" width="364" height="88" rx="22" fill="#DDD0FF"/>
  <circle cx="644" cy="273" r="18" fill="white"/>
  <circle cx="694" cy="273" r="18" fill="#9AE6B4"/>
  <circle cx="744" cy="273" r="18" fill="#93C5FD"/>
  <path d="M612 510H838" stroke="#6D4FC2" stroke-width="22" stroke-linecap="round"/>
  <path d="M612 548H764" stroke="#6D4FC2" stroke-width="16" stroke-linecap="round" opacity="0.55"/>
</svg>
